<?xml version="1.0" encoding="UTF-8" standalone="no"?>
<svg
   width="613.78998pt"
   height="332.15527pt"
   viewBox="0 0 613.78999 332.15527"
   version="1.1"
   id="svg161"
   xmlns:xlink="http://www.w3.org/1999/xlink"
   xmlns="http://www.w3.org/2000/svg"
   xmlns:svg="http://www.w3.org/2000/svg"
   xmlns:rdf="http://www.w3.org/1999/02/22-rdf-syntax-ns#"
   xmlns:cc="http://creativecommons.org/ns#"
   xmlns:dc="http://purl.org/dc/elements/1.1/">
  <metadata
     id="metadata1">
    <rdf:RDF>
      <cc:Work>
        <dc:type
           rdf:resource="http://purl.org/dc/dcmitype/StillImage" />
        <dc:date>2025-01-03T10:53:27.736477</dc:date>
        <dc:format>image/svg+xml</dc:format>
        <dc:creator>
          <cc:Agent>
            <dc:title>Matplotlib v3.9.2, https://matplotlib.org/</dc:title>
          </cc:Agent>
        </dc:creator>
      </cc:Work>
    </rdf:RDF>
  </metadata>
  <defs
     id="defs1">
    <style
       type="text/css"
       id="style1">*{stroke-linejoin: round; stroke-linecap: butt}</style>
  </defs>
  <g
     id="figure_1"
     transform="translate(-1.347393,-12.648357)">
    <g
       id="axes_1">
      <g
         id="PolyCollection_1">
        <defs
           id="defs2">
          <path
             id="m027d4816b5"
             d="m 73.832727,-50.112 v -241.92 h 3.279339 l 3.279339,0.16042 3.279339,0.73796 3.279339,0.24865 3.279338,0.44919 3.279339,1.49997 3.279339,3.76997 3.279341,18.99425 3.27934,61.3463 3.27934,71.04394 3.27934,37.972459 3.27933,17.839193 3.27934,9.128149 3.27934,5.59079 3.27934,3.513295 3.27934,1.965199 3.27934,1.668414 3.27934,1.347565 3.27933,1.764668 3.27934,1.227247 3.27934,0.994631 3.27934,0.2647 3.27934,0.104276 3.27934,0.02406 3.27934,0.08823 3.27934,0.04813 3.27934,0.04011 3.27933,0.06417 3.27934,0.01604 3.27934,0.008 h 3.27934 3.27934 3.27934 3.27934 3.27934 3.27934 3.27933 3.27934 3.27934 3.27934 3.27934 3.27934 3.27934 3.27934 3.27933 3.27934 3.27934 3.27934 3.27934 3.27934 3.27934 3.27934 3.27934 3.27933 3.27934 3.27934 3.27934 3.27934 3.27934 3.27934 3.27934 3.27934 3.27933 3.27934 3.27934 3.27934 3.27934 3.27934 3.27934 3.27934 3.27934 3.27933 3.27934 3.27934 3.27934 3.27934 3.27934 3.27934 3.27934 3.27934 3.27933 3.27934 3.27934 3.27934 3.27934 3.27934 3.27934 3.27933 3.27934 3.27934 3.27934 3.27934 3.27934 3.27934 3.27934 3.27934 3.27933 3.27934 3.27934 v 0 0 h -3.27934 -3.27934 -3.27933 -3.27934 -3.27934 -3.27934 -3.27934 -3.27934 -3.27934 -3.27934 -3.27934 -3.27933 -3.27934 -3.27934 -3.27934 -3.27934 -3.27934 -3.27934 -3.27933 -3.27934 -3.27934 -3.27934 -3.27934 -3.27934 -3.27934 -3.27934 -3.27934 -3.27933 -3.27934 -3.27934 -3.27934 -3.27934 -3.27934 -3.27934 -3.27934 -3.27934 -3.27933 -3.27934 -3.27934 -3.27934 -3.27934 -3.27934 -3.27934 -3.27934 -3.27934 -3.27933 -3.27934 -3.27934 -3.27934 -3.27934 -3.27934 -3.27934 -3.27934 -3.27934 -3.27933 -3.27934 -3.27934 -3.27934 -3.27934 -3.27934 -3.27934 -3.27934 -3.27933 -3.27934 -3.27934 -3.27934 -3.27934 -3.27934 -3.27934 -3.27934 -3.27934 -3.27933 -3.27934 -3.27934 -3.27934 -3.27934 -3.27934 -3.27934 -3.27934 -3.27934 -3.27933 -3.27934 -3.27934 -3.27934 -3.27934 -3.27934 -3.27934 -3.27933 -3.27934 -3.27934 -3.27934 -3.279341 -3.279339 -3.279339 -3.279338 -3.279339 -3.279339 -3.279339 z"
             style="stroke:#87ceeb;stroke-opacity:0.6" />
        </defs>
        <g
           clip-path="url(#p1ab959b18a)"
           id="g2">
          <use
             xlink:href="#m027d4816b5"
             x="0"
             y="345.60001"
             style="fill:#87ceeb;fill-opacity:0.6;stroke:#87ceeb;stroke-opacity:0.6"
             id="use2" />
        </g>
      </g>
      <g
         id="matplotlib.axis_1">
        <g
           id="xtick_1">
          <g
             id="line2d_1">
            <defs
               id="defs3">
              <path
                 id="m18c2d46e52"
                 d="M 0,0 V 3.5"
                 style="stroke:#000000;stroke-width:0.8" />
            </defs>
            <g
               id="g3">
              <use
                 xlink:href="#m18c2d46e52"
                 x="73.832726"
                 y="307.58401"
                 style="stroke:#000000;stroke-width:0.8"
                 id="use3" />
            </g>
          </g>
          <g
             id="text_1">
            <!-- 0.0 -->
            <g
               transform="matrix(0.1,0,0,-0.1,65.881165,322.18244)"
               id="g6">
              <defs
                 id="defs4">
                <path
                   id="DejaVuSans-30"
                   d="m 2034,4250 q -487,0 -733,-480 -245,-479 -245,-1442 0,-959 245,-1439 246,-480 733,-480 491,0 736,480 246,480 246,1439 0,963 -246,1442 -245,480 -736,480 z m 0,500 q 785,0 1199,-621 414,-620 414,-1801 0,-1178 -414,-1799 -414,-620 -1199,-620 -784,0 -1198,620 -414,621 -414,1799 0,1181 414,1801 414,621 1198,621 z"
                   transform="scale(0.015625)" />
                <path
                   id="DejaVuSans-2e"
                   d="m 684,794 h 660 V 0 H 684 Z"
                   transform="scale(0.015625)" />
              </defs>
              <use
                 xlink:href="#DejaVuSans-30"
                 id="use4" />
              <use
                 xlink:href="#DejaVuSans-2e"
                 x="63.623047"
                 id="use5" />
              <use
                 xlink:href="#DejaVuSans-30"
                 x="95.410156"
                 id="use6" />
            </g>
          </g>
        </g>
        <g
           id="xtick_2">
          <g
             id="line2d_2">
            <g
               id="g7">
              <use
                 xlink:href="#m18c2d46e52"
                 x="138.76364"
                 y="307.58401"
                 style="stroke:#000000;stroke-width:0.8"
                 id="use7" />
            </g>
          </g>
          <g
             id="text_2">
            <!-- 0.2 -->
            <g
               transform="matrix(0.1,0,0,-0.1,130.81207,322.18244)"
               id="g10">
              <defs
                 id="defs7">
                <path
                   id="DejaVuSans-32"
                   d="M 1228,531 H 3431 V 0 H 469 v 531 q 359,372 979,998 621,627 780,809 303,340 423,576 121,236 121,464 0,372 -261,606 -261,235 -680,235 -297,0 -627,-103 -329,-103 -704,-313 v 638 q 381,153 712,231 332,78 607,78 725,0 1156,-363 431,-362 431,-968 0,-288 -108,-546 -107,-257 -392,-607 -78,-91 -497,-524 Q 1991,1309 1228,531 Z"
                   transform="scale(0.015625)" />
              </defs>
              <use
                 xlink:href="#DejaVuSans-30"
                 id="use8" />
              <use
                 xlink:href="#DejaVuSans-2e"
                 x="63.623047"
                 id="use9" />
              <use
                 xlink:href="#DejaVuSans-32"
                 x="95.410156"
                 id="use10" />
            </g>
          </g>
        </g>
        <g
           id="xtick_3">
          <g
             id="line2d_3">
            <g
               id="g11">
              <use
                 xlink:href="#m18c2d46e52"
                 x="203.69455"
                 y="307.58401"
                 style="stroke:#000000;stroke-width:0.8"
                 id="use11" />
            </g>
          </g>
          <g
             id="text_3">
            <!-- 0.4 -->
            <g
               transform="matrix(0.1,0,0,-0.1,195.74298,322.18244)"
               id="g14">
              <defs
                 id="defs11">
                <path
                   id="DejaVuSans-34"
                   d="M 2419,4116 825,1625 h 1594 z m -166,550 h 794 V 1625 h 666 V 1100 H 3047 V 0 H 2419 V 1100 H 313 v 609 z"
                   transform="scale(0.015625)" />
              </defs>
              <use
                 xlink:href="#DejaVuSans-30"
                 id="use12" />
              <use
                 xlink:href="#DejaVuSans-2e"
                 x="63.623047"
                 id="use13" />
              <use
                 xlink:href="#DejaVuSans-34"
                 x="95.410156"
                 id="use14" />
            </g>
          </g>
        </g>
        <g
           id="xtick_4">
          <g
             id="line2d_4">
            <g
               id="g15">
              <use
                 xlink:href="#m18c2d46e52"
                 x="268.62546"
                 y="307.58401"
                 style="stroke:#000000;stroke-width:0.8"
                 id="use15" />
            </g>
          </g>
          <g
             id="text_4">
            <!-- 0.6 -->
            <g
               transform="matrix(0.1,0,0,-0.1,260.67389,322.18244)"
               id="g18">
              <defs
                 id="defs15">
                <path
                   id="DejaVuSans-36"
                   d="m 2113,2584 q -425,0 -674,-291 -248,-290 -248,-796 0,-503 248,-796 249,-292 674,-292 425,0 673,292 248,293 248,796 0,506 -248,796 -248,291 -673,291 z m 1253,1979 v -575 q -238,112 -480,171 -242,60 -480,60 -625,0 -955,-422 -329,-422 -376,-1275 184,272 462,417 279,145 613,145 703,0 1111,-427 408,-426 408,-1160 0,-719 -425,-1154 -425,-434 -1131,-434 -810,0 -1238,620 -428,621 -428,1799 0,1106 525,1764 525,658 1409,658 238,0 480,-47 242,-47 505,-140 z"
                   transform="scale(0.015625)" />
              </defs>
              <use
                 xlink:href="#DejaVuSans-30"
                 id="use16" />
              <use
                 xlink:href="#DejaVuSans-2e"
                 x="63.623047"
                 id="use17" />
              <use
                 xlink:href="#DejaVuSans-36"
                 x="95.410156"
                 id="use18" />
            </g>
          </g>
        </g>
        <g
           id="xtick_5">
          <g
             id="line2d_5">
            <g
               id="g19">
              <use
                 xlink:href="#m18c2d46e52"
                 x="333.55637"
                 y="307.58401"
                 style="stroke:#000000;stroke-width:0.8"
                 id="use19" />
            </g>
          </g>
          <g
             id="text_5">
            <!-- 0.8 -->
            <g
               transform="matrix(0.1,0,0,-0.1,325.6048,322.18244)"
               id="g22">
              <defs
                 id="defs19">
                <path
                   id="DejaVuSans-38"
                   d="m 2034,2216 q -450,0 -708,-241 -257,-241 -257,-662 0,-422 257,-663 258,-241 708,-241 450,0 709,242 260,243 260,662 0,421 -258,662 -257,241 -711,241 z m -631,268 q -406,100 -633,378 -226,279 -226,679 0,559 398,884 399,325 1092,325 697,0 1094,-325 397,-325 397,-884 0,-400 -227,-679 -226,-278 -629,-378 456,-106 710,-416 255,-309 255,-755 Q 3634,634 3220,271 2806,-91 2034,-91 1263,-91 848,271 434,634 434,1313 q 0,446 256,755 257,310 713,416 z m -231,997 q 0,-362 226,-565 227,-203 636,-203 407,0 636,203 230,203 230,565 0,363 -230,566 -229,203 -636,203 -409,0 -636,-203 -226,-203 -226,-566 z"
                   transform="scale(0.015625)" />
              </defs>
              <use
                 xlink:href="#DejaVuSans-30"
                 id="use20" />
              <use
                 xlink:href="#DejaVuSans-2e"
                 x="63.623047"
                 id="use21" />
              <use
                 xlink:href="#DejaVuSans-38"
                 x="95.410156"
                 id="use22" />
            </g>
          </g>
        </g>
        <g
           id="xtick_6">
          <g
             id="line2d_6">
            <g
               id="g23">
              <use
                 xlink:href="#m18c2d46e52"
                 x="398.48727"
                 y="307.58401"
                 style="stroke:#000000;stroke-width:0.8"
                 id="use23" />
            </g>
          </g>
          <g
             id="text_6">
            <!-- 1.0 -->
            <g
               transform="matrix(0.1,0,0,-0.1,390.53571,322.18244)"
               id="g26">
              <defs
                 id="defs23">
                <path
                   id="DejaVuSans-31"
                   d="M 794,531 H 1825 V 4091 L 703,3866 v 575 l 1116,225 h 631 V 531 H 3481 V 0 H 794 Z"
                   transform="scale(0.015625)" />
              </defs>
              <use
                 xlink:href="#DejaVuSans-31"
                 id="use24" />
              <use
                 xlink:href="#DejaVuSans-2e"
                 x="63.623047"
                 id="use25" />
              <use
                 xlink:href="#DejaVuSans-30"
                 x="95.410156"
                 id="use26" />
            </g>
          </g>
        </g>
      </g>
      <g
         id="matplotlib.axis_2">
        <g
           id="ytick_1">
          <g
             id="line2d_7">
            <defs
               id="defs35">
              <path
                 id="mef18eae63d"
                 d="M 0,0 H -3.5"
                 style="stroke:#000000;stroke-width:0.8" />
            </defs>
            <g
               id="g36">
              <use
                 xlink:href="#mef18eae63d"
                 x="57.599998"
                 y="295.48801"
                 style="stroke:#000000;stroke-width:0.8"
                 id="use36" />
            </g>
          </g>
          <g
             id="text_8">
            <!-- 0.00 -->
            <g
               transform="matrix(0.1,0,0,-0.1,28.334375,299.28722)"
               id="g40">
              <use
                 xlink:href="#DejaVuSans-30"
                 id="use37" />
              <use
                 xlink:href="#DejaVuSans-2e"
                 x="63.623047"
                 id="use38" />
              <use
                 xlink:href="#DejaVuSans-30"
                 x="95.410156"
                 id="use39" />
              <use
                 xlink:href="#DejaVuSans-30"
                 x="159.0332"
                 id="use40" />
            </g>
          </g>
        </g>
        <g
           id="ytick_2">
          <g
             id="line2d_8">
            <g
               id="g41">
              <use
                 xlink:href="#mef18eae63d"
                 x="57.599998"
                 y="238.6368"
                 style="stroke:#000000;stroke-width:0.8"
                 id="use41" />
            </g>
          </g>
          <g
             id="text_9">
            <!-- 0.05 -->
            <g
               transform="matrix(0.1,0,0,-0.1,28.334375,242.43602)"
               id="g45">
              <defs
                 id="defs41">
                <path
                   id="DejaVuSans-35"
                   d="M 691,4666 H 3169 V 4134 H 1269 V 2991 q 137,47 274,70 138,23 276,23 781,0 1237,-428 457,-428 457,-1159 Q 3513,744 3044,326 2575,-91 1722,-91 1428,-91 1123,-41 819,9 494,109 v 635 q 281,-153 581,-228 300,-75 634,-75 541,0 856,284 316,284 316,772 0,487 -316,771 -315,285 -856,285 -253,0 -505,-56 -251,-56 -513,-175 z"
                   transform="scale(0.015625)" />
              </defs>
              <use
                 xlink:href="#DejaVuSans-30"
                 id="use42" />
              <use
                 xlink:href="#DejaVuSans-2e"
                 x="63.623047"
                 id="use43" />
              <use
                 xlink:href="#DejaVuSans-30"
                 x="95.410156"
                 id="use44" />
              <use
                 xlink:href="#DejaVuSans-35"
                 x="159.0332"
                 id="use45" />
            </g>
          </g>
        </g>
        <g
           id="ytick_3">
          <g
             id="line2d_9">
            <g
               id="g46">
              <use
                 xlink:href="#mef18eae63d"
                 x="57.599998"
                 y="181.7856"
                 style="stroke:#000000;stroke-width:0.8"
                 id="use46" />
            </g>
          </g>
          <g
             id="text_10">
            <!-- 0.10 -->
            <g
               transform="matrix(0.1,0,0,-0.1,28.334375,185.58482)"
               id="g50">
              <use
                 xlink:href="#DejaVuSans-30"
                 id="use47" />
              <use
                 xlink:href="#DejaVuSans-2e"
                 x="63.623047"
                 id="use48" />
              <use
                 xlink:href="#DejaVuSans-31"
                 x="95.410156"
                 id="use49" />
              <use
                 xlink:href="#DejaVuSans-30"
                 x="159.0332"
                 id="use50" />
            </g>
          </g>
        </g>
        <g
           id="ytick_4">
          <g
             id="line2d_10">
            <g
               id="g51">
              <use
                 xlink:href="#mef18eae63d"
                 x="57.599998"
                 y="124.9344"
                 style="stroke:#000000;stroke-width:0.8"
                 id="use51" />
            </g>
          </g>
          <g
             id="text_11">
            <!-- 0.15 -->
            <g
               transform="matrix(0.1,0,0,-0.1,28.334375,128.73362)"
               id="g55">
              <use
                 xlink:href="#DejaVuSans-30"
                 id="use52" />
              <use
                 xlink:href="#DejaVuSans-2e"
                 x="63.623047"
                 id="use53" />
              <use
                 xlink:href="#DejaVuSans-31"
                 x="95.410156"
                 id="use54" />
              <use
                 xlink:href="#DejaVuSans-35"
                 x="159.0332"
                 id="use55" />
            </g>
          </g>
        </g>
        <g
           id="ytick_5">
          <g
             id="line2d_11">
            <g
               id="g56">
              <use
                 xlink:href="#mef18eae63d"
                 x="57.599998"
                 y="68.083199"
                 style="stroke:#000000;stroke-width:0.8"
                 id="use56" />
            </g>
          </g>
          <g
             id="text_12">
            <!-- 0.20 -->
            <g
               transform="matrix(0.1,0,0,-0.1,28.334375,71.882419)"
               id="g60">
              <use
                 xlink:href="#DejaVuSans-30"
                 id="use57" />
              <use
                 xlink:href="#DejaVuSans-2e"
                 x="63.623047"
                 id="use58" />
              <use
                 xlink:href="#DejaVuSans-32"
                 x="95.410156"
                 id="use59" />
              <use
                 xlink:href="#DejaVuSans-30"
                 x="159.0332"
                 id="use60" />
            </g>
          </g>
        </g>
      </g>
      <g
         id="line2d_12">
        <path
           d="M 103.34678,307.584 V 41.472"
           clip-path="url(#p1ab959b18a)"
           style="fill:none;stroke:#800080;stroke-width:1.5;stroke-dasharray:5.55, 2.4;stroke-dashoffset:0"
           id="path67" />
      </g>
      <g
         id="patch_3">
        <path
           d="M 57.6,307.584 V 41.472"
           style="fill:none;stroke:#000000;stroke-width:0.8;stroke-linecap:square;stroke-linejoin:miter"
           id="path68" />
      </g>
      <g
         id="patch_4"
         transform="translate(161.5764,-0.16139304)">
        <path
           d="M 414.72,307.584 V 41.472"
           style="fill:none;stroke:#000000;stroke-width:0.8;stroke-linecap:square;stroke-linejoin:miter"
           id="path69" />
      </g>
      <g
         id="patch_5"
         transform="matrix(1.4512623,0,0,-1,-25.812202,614.75547)">
        <path
           d="M 57.6,307.584 H 414.72"
           style="fill:none;stroke:#000000;stroke-width:0.8;stroke-linecap:square;stroke-linejoin:miter"
           id="path70" />
      </g>
      <g
         id="patch_6"
         transform="matrix(1.4513271,0,0,1,-25.815909,0)">
        <path
           d="M 57.6,41.472 H 414.72"
           style="fill:none;stroke:#000000;stroke-width:0.8;stroke-linecap:square;stroke-linejoin:miter"
           id="path71" />
      </g>
      <g
         id="text_14">
        <!-- Density of document-topic incidence matrix -->
        <text
           xml:space="preserve"
           style="font-size:28px;line-height:1.35;font-family:Sans;-inkscape-font-specification:'Sans, Normal';text-align:end;writing-mode:lr-tb;direction:ltr;text-anchor:end;fill:#000000;stroke-width:0.75"
           x="131.10242"
           y="32.675545"
           id="text161"><tspan
             id="tspan161"
             style="stroke-width:0.75"
             x="131.10242"
             y="32.675545" /></text>
        <text
           xml:space="preserve"
           style="font-style:normal;font-variant:normal;font-weight:normal;font-stretch:normal;font-size:28px;line-height:1.35;font-family:Sans;-inkscape-font-specification:'Sans, Normal';font-variant-ligatures:normal;font-variant-caps:normal;font-variant-numeric:normal;font-variant-east-asian:normal;text-align:center;writing-mode:lr-tb;direction:ltr;text-anchor:middle;fill:#000000;stroke-width:0.75;stroke-linecap:butt;stroke-linejoin:round"
           x="309.29749"
           y="34.058514"
           id="text162"><tspan
             id="tspan169"
             x="309.29749"
             y="34.058514">Density of document-topic incidence matrix</tspan></text>
      </g>
      <g
         id="legend_1"
         transform="matrix(1.6486783,0,0,1.6767604,-103.23777,-30.953902)">
        <g
           id="patch_7"
           transform="matrix(0.99847875,0,0,1.909198,0.43294401,-42.061909)">
          <path
             d="M 161.47469,78.82825 H 407.72 q 2,0 2,-2 V 48.472 q 0,-2 -2,-2 H 161.47469 q -2,0 -2,2 v 28.35625 q 0,2 2,2 z"
             style="opacity:0.8;fill:#ffffff;stroke:#cccccc;stroke-linejoin:miter"
             id="path112" />
        </g>
        <g
           id="patch_8">
          <path
             d="m 163.47469,58.070437 h 20 v -7 h -20 z"
             style="fill:#87ceeb;fill-opacity:0.6;stroke:#87ceeb;stroke-linejoin:miter;stroke-opacity:0.6"
             id="path113" />
        </g>
        <g
           id="line2d_13"
           transform="translate(0.03481862,0.97454097)">
          <path
             d="m 163.47469,69.248562 h 10 10"
             style="fill:none;stroke:#800080;stroke-width:1.5;stroke-dasharray:5.55, 2.4;stroke-dashoffset:0"
             id="path119" />
        </g>
        <g
           id="text_16"
           transform="translate(0.20942888,11.998173)">
          <!-- Optimal threshold = 0.09 for density = 0.1 -->
        </g>
      </g>
      <text
         xml:space="preserve"
         style="font-style:normal;font-variant:normal;font-weight:normal;font-stretch:normal;font-size:28px;line-height:1.35;font-family:Sans;-inkscape-font-specification:'Sans, Normal';font-variant-ligatures:normal;font-variant-caps:normal;font-variant-numeric:normal;font-variant-east-asian:normal;text-align:center;writing-mode:lr-tb;direction:ltr;text-anchor:middle;fill:#000000;stroke-width:0.75"
         x="257.00732"
         y="69.165543"
         id="text164"><tspan
           id="tspan164"
           style="stroke-width:0.75"
           x="257.00732"
           y="69.165543">Density</tspan></text>
      <text
         xml:space="preserve"
         style="font-style:normal;font-variant:normal;font-weight:normal;font-stretch:normal;font-size:28px;line-height:1.35;font-family:Sans;-inkscape-font-specification:'Sans, Normal';font-variant-ligatures:normal;font-variant-caps:normal;font-variant-numeric:normal;font-variant-east-asian:normal;text-align:end;writing-mode:lr-tb;direction:ltr;text-anchor:end;fill:#000000;stroke-width:0.75;stroke-linecap:butt;stroke-linejoin:round"
         x="572.38373"
         y="100.38985"
         id="text165"><tspan
           id="tspan165"
           x="572.38373"
           y="100.38985">Optimal threshold = 0.09 </tspan><tspan
           id="tspan166"
           x="572.38373"
           y="138.18985">for density = 0.1</tspan></text>
      <text
         xml:space="preserve"
         style="font-style:normal;font-variant:normal;font-weight:normal;font-stretch:normal;font-size:28px;line-height:1.35;font-family:Sans;-inkscape-font-specification:'Sans, Normal';font-variant-ligatures:normal;font-variant-caps:normal;font-variant-numeric:normal;font-variant-east-asian:normal;text-align:end;writing-mode:lr-tb;direction:ltr;text-anchor:end;fill:#000000;stroke-width:0.75"
         x="307.47809"
         y="344.37982"
         id="text167"><tspan
           id="tspan167"
           style="stroke-width:0.75"
           x="307.47809"
           y="344.37982">Threshold</tspan></text>
      <text
         xml:space="preserve"
         style="font-style:normal;font-variant:normal;font-weight:normal;font-stretch:normal;font-size:28px;line-height:1.35;font-family:Sans;-inkscape-font-specification:'Sans, Normal';font-variant-ligatures:normal;font-variant-caps:normal;font-variant-numeric:normal;font-variant-east-asian:normal;text-align:end;writing-mode:lr-tb;direction:ltr;text-anchor:end;fill:#000000;stroke-width:0.75"
         x="-108.16056"
         y="21.841534"
         id="text168"
         transform="rotate(-90)"><tspan
           id="tspan168"
           style="stroke-width:0.75"
           x="-108.16056"
           y="21.841534">Density</tspan></text>
    </g>
  </g>
  <defs
     id="defs161">
    <clipPath
       id="p1ab959b18a">
      <rect
         x="57.599998"
         y="41.472"
         width="357.12"
         height="266.112"
         id="rect161" />
    </clipPath>
  </defs>
</svg>
